<?xml version="1.0" encoding="UTF-8" standalone="no"?>
<!-- Created with Inkscape (http://www.inkscape.org/) -->

<svg
   width="2560"
   height="1440"
   viewBox="0 0 677.33333 380.99997"
   version="1.1"
   id="svg5"
   xml:space="preserve"
   inkscape:version="1.2.1 (9c6d41e410, 2022-07-14)"
   sodipodi:docname="wallpaper.svg"
   xmlns:inkscape="http://www.inkscape.org/namespaces/inkscape"
   xmlns:sodipodi="http://sodipodi.sourceforge.net/DTD/sodipodi-0.dtd"
   xmlns="http://www.w3.org/2000/svg"
   xmlns:svg="http://www.w3.org/2000/svg"><sodipodi:namedview
     id="namedview7"
     pagecolor="#505050"
     bordercolor="#eeeeee"
     borderopacity="1"
     inkscape:showpageshadow="0"
     inkscape:pageopacity="0"
     inkscape:pagecheckerboard="0"
     inkscape:deskcolor="#505050"
     inkscape:document-units="px"
     showgrid="true"
     showguides="true"
     inkscape:zoom="0.5"
     inkscape:cx="1371"
     inkscape:cy="782"
     inkscape:window-width="2560"
     inkscape:window-height="1377"
     inkscape:window-x="-8"
     inkscape:window-y="-8"
     inkscape:window-maximized="1"
     inkscape:current-layer="layer1"><inkscape:grid
       type="xygrid"
       id="grid179"
       originx="0"
       originy="0"
       empspacing="2"
       spacingy="190.49999"
       spacingx="338.66665" /></sodipodi:namedview><defs
     id="defs2"><inkscape:path-effect
       effect="bend_path"
       id="path-effect5581"
       is_visible="true"
       lpeversion="1"
       bendpath="M 62.177083,104.24583 H 103.98125"
       prop_scale="1"
       scale_y_rel="false"
       vertical="false"
       hide_knot="false" /><inkscape:path-effect
       effect="bend_path"
       id="path-effect5579"
       is_visible="true"
       lpeversion="1"
       bendpath="M 62.177083,104.24583 H 103.98125"
       prop_scale="1.0004152"
       scale_y_rel="false"
       vertical="false"
       hide_knot="false" /><inkscape:path-effect
       effect="bend_path"
       id="path-effect5575"
       is_visible="true"
       lpeversion="1"
       bendpath="m 62.177083,104.24583 c 14.053611,-3.3516 28.024828,-4.380418 41.804167,0"
       prop_scale="1.0092087"
       scale_y_rel="false"
       vertical="false"
       hide_knot="false"
       bendpath-nodetypes="cc" /></defs><g
     inkscape:label="Layer 1"
     inkscape:groupmode="layer"
     id="layer1"><rect
       style="fill:#16171a;fill-opacity:1;stroke:none;stroke-width:0.264583;stroke-opacity:1"
       id="rect15305"
       width="677.33331"
       height="380.99997"
       x="0"
       y="0" /><g
       id="g4778"
       transform="matrix(3.0128206,0,0,3.0128206,88.364028,-123.57401)"><path
         id="path3634"
         style="fill:#bfff3c;fill-opacity:1;stroke-width:0.264583"
         d="m 96.04375,80.16875 v 18.520833 h 7.40833 c 0.52917,0 0.52917,-0.529166 0.52917,-0.529166 v -17.4625 c 0,-0.529167 -0.52917,-0.529167 -0.52917,-0.529167 z m 3.704167,3.704167 h 0.264583 c 0.0165,0 0.032,0.0012 0.0465,0.0031 0.0145,0.0019 0.0282,0.0047 0.0408,0.0083 0.0127,0.0036 0.0242,0.0079 0.0351,0.01292 0.0109,0.005 0.0212,0.01085 0.0305,0.01705 0.009,0.0062 0.018,0.01305 0.0258,0.02015 0.008,0.0071 0.0147,0.01447 0.0212,0.02222 0.006,0.0078 0.0123,0.01563 0.0176,0.02377 0.005,0.0081 0.01,0.01654 0.014,0.0248 0.008,0.01654 0.0145,0.03307 0.0191,0.04858 0.005,0.0155 0.008,0.02997 0.01,0.04238 0.004,0.0248 0.004,0.04134 0.004,0.04134 V 94.72086 c 0,0.01654 -0.001,0.03198 -0.003,0.04651 -0.002,0.01453 -0.005,0.02816 -0.008,0.04082 -0.004,0.01266 -0.008,0.02422 -0.0129,0.03514 -0.005,0.01092 -0.0109,0.02119 -0.0171,0.03049 -0.006,0.0093 -0.0131,0.01802 -0.0202,0.02584 -0.007,0.0078 -0.0145,0.01473 -0.0222,0.02119 -0.008,0.0065 -0.0156,0.01234 -0.0238,0.01757 -0.008,0.0052 -0.0165,0.0098 -0.0248,0.01395 -0.0165,0.0083 -0.0331,0.01447 -0.0486,0.01912 -0.0155,0.0047 -0.03,0.0078 -0.0424,0.0098 -0.0248,0.0041 -0.0413,0.0041 -0.0413,0.0041 h -0.264583 z" /><path
         id="path3634-7"
         style="fill:#ff2674;fill-opacity:1;stroke-width:0.264583"
         d="m 62.177083,102.39375 v 18.52083 h 7.40833 c 0.52917,0 0.52917,-0.52917 0.52917,-0.52917 v -17.4625 c 0,-0.52916 -0.52917,-0.52916 -0.52917,-0.52916 z m 3.704167,3.70416 h 0.264583 c 0.0165,0 0.032,0.001 0.0465,0.003 0.0145,0.002 0.0282,0.005 0.0408,0.008 0.0127,0.004 0.0242,0.008 0.0351,0.0129 0.0109,0.005 0.0212,0.0109 0.0305,0.017 0.009,0.006 0.018,0.0131 0.0258,0.0202 0.008,0.007 0.0147,0.0145 0.0212,0.0222 0.006,0.008 0.0123,0.0156 0.0176,0.0238 0.005,0.008 0.01,0.0165 0.014,0.0248 0.008,0.0165 0.0145,0.0331 0.0191,0.0486 0.005,0.0155 0.008,0.03 0.01,0.0424 0.004,0.0248 0.004,0.0413 0.004,0.0413 v 10.58333 c 0,0.0165 -10e-4,0.032 -0.003,0.0465 -0.002,0.0145 -0.005,0.0282 -0.008,0.0408 -0.004,0.0127 -0.008,0.0242 -0.0129,0.0351 -0.005,0.0109 -0.0109,0.0212 -0.0171,0.0305 -0.006,0.009 -0.0131,0.018 -0.0202,0.0258 -0.007,0.008 -0.0145,0.0147 -0.0222,0.0212 -0.008,0.006 -0.0156,0.0123 -0.0238,0.0176 -0.008,0.005 -0.0165,0.01 -0.0248,0.014 -0.0165,0.008 -0.0331,0.0145 -0.0486,0.0191 -0.0155,0.005 -0.03,0.008 -0.0424,0.01 -0.0248,0.004 -0.0413,0.004 -0.0413,0.004 H 65.88155 Z" /><path
         id="path2877"
         style="fill:#bfff3c;fill-opacity:1;stroke-width:0.264583"
         d="m 71.172917,80.16875 c -0.529167,0 -0.529167,0.529167 -0.529167,0.529167 v 17.4625 c 0,0.529166 0.529167,0.529166 0.529167,0.529166 h 3.439583 3.439583 c 0.529167,0 0.529167,-0.529166 0.529167,-0.529166 v -17.4625 c 0,-0.529167 -0.529167,-0.529167 -0.529167,-0.529167 z m 3.439583,3.704167 c 0,0 0.01654,0 0.04134,0.0041 0.0124,0.0021 0.02687,0.0052 0.04238,0.0098 0.0155,0.0047 0.03204,0.01085 0.04858,0.01912 0.0083,0.0041 0.01666,0.0087 0.0248,0.01395 0.0081,0.0052 0.01602,0.01111 0.02377,0.01757 0.0078,0.0065 0.01511,0.01337 0.02222,0.02119 0.0071,0.0078 0.01395,0.01654 0.02015,0.02584 0.0062,0.0093 0.01202,0.01957 0.01705,0.03049 0.005,0.01092 0.0093,0.02248 0.01292,0.03514 0.0036,0.01266 0.0063,0.02629 0.0083,0.04082 0.0019,0.01453 0.0031,0.02997 0.0031,0.04651 0,0 -1.8e-5,7.055559 0,10.583333 0,0.01654 -0.0012,0.03198 -0.0031,0.04651 -0.0019,0.01453 -0.0047,0.02816 -0.0083,0.04082 -0.0036,0.01266 -0.0079,0.02422 -0.01292,0.03514 -0.005,0.01092 -0.01085,0.02119 -0.01705,0.03049 -0.0062,0.0093 -0.01305,0.01802 -0.02015,0.02584 -0.0071,0.0078 -0.01447,0.01473 -0.02222,0.02119 -0.0078,0.0065 -0.01563,0.01234 -0.02377,0.01757 -0.0081,0.0052 -0.01654,0.0098 -0.0248,0.01395 -0.01654,0.0083 -0.03307,0.01447 -0.04858,0.01912 -0.0155,0.0047 -0.02997,0.0078 -0.04238,0.0098 -0.02481,0.0041 -0.04134,0.0041 -0.04134,0.0041 0,0 -0.01654,0 -0.04134,-0.0041 -0.0124,-0.0021 -0.02687,-0.0052 -0.04237,-0.0098 -0.0155,-0.0047 -0.03204,-0.01085 -0.04858,-0.01912 -0.0083,-0.0041 -0.01667,-0.0087 -0.0248,-0.01395 -0.0081,-0.0052 -0.01602,-0.01111 -0.02377,-0.01757 -0.0078,-0.0065 -0.01511,-0.01337 -0.02222,-0.02119 -0.0071,-0.0078 -0.01395,-0.01654 -0.02015,-0.02584 -0.0062,-0.0093 -0.01201,-0.01957 -0.01705,-0.03049 -0.005,-0.01092 -0.0093,-0.02248 -0.01292,-0.03514 -0.0036,-0.01266 -0.0063,-0.02629 -0.0083,-0.04082 -0.0019,-0.01453 -0.0031,-0.02997 -0.0031,-0.04651 -9e-6,-3.527774 -9e-6,-7.055559 0,-10.583333 0,-0.01654 0.0012,-0.03198 0.0031,-0.04651 0.0019,-0.01453 0.0047,-0.02816 0.0083,-0.04082 0.0036,-0.01266 0.0079,-0.02422 0.01292,-0.03514 0.005,-0.01092 0.01085,-0.02119 0.01705,-0.03049 0.0062,-0.0093 0.01305,-0.01802 0.02015,-0.02584 0.0071,-0.0078 0.01447,-0.01473 0.02222,-0.02119 0.0078,-0.0065 0.01563,-0.01234 0.02377,-0.01757 0.0081,-0.0052 0.01654,-0.0098 0.0248,-0.01395 0.01654,-0.0083 0.03307,-0.01447 0.04858,-0.01912 0.0155,-0.0047 0.02997,-0.0078 0.04237,-0.0098 0.0248,-0.0041 0.04134,-0.0041 0.04134,-0.0041 z" /><path
         id="path2877-8"
         style="fill:#ff2674;fill-opacity:1;stroke-width:0.264583"
         d="m 71.172917,102.39375 c -0.529167,0 -0.529167,0.52917 -0.529167,0.52917 v 17.4625 c 0,0.52917 0.529167,0.52917 0.529167,0.52917 h 3.439583 3.439583 c 0.529167,0 0.529167,-0.52917 0.529167,-0.52917 v -17.4625 c 0,-0.52917 -0.529167,-0.52917 -0.529167,-0.52917 z m 3.439583,3.70417 c 0,0 0.01654,0 0.04134,0.004 0.0124,0.002 0.02687,0.005 0.04238,0.01 0.0155,0.005 0.03204,0.0109 0.04858,0.0191 0.0083,0.004 0.01666,0.009 0.0248,0.0139 0.0081,0.005 0.01602,0.0111 0.02377,0.0176 0.0078,0.007 0.01511,0.0134 0.02222,0.0212 0.0071,0.008 0.01395,0.0165 0.02015,0.0258 0.0062,0.009 0.01202,0.0196 0.01705,0.0305 0.005,0.0109 0.0093,0.0225 0.01292,0.0351 0.0036,0.0127 0.0063,0.0263 0.0083,0.0408 0.0019,0.0145 0.0031,0.03 0.0031,0.0465 0,0 -1.8e-5,7.05556 0,10.58333 0,0.0165 -0.0012,0.032 -0.0031,0.0465 -0.0019,0.0145 -0.0047,0.0282 -0.0083,0.0408 -0.0036,0.0127 -0.0079,0.0242 -0.01292,0.0351 -0.005,0.0109 -0.01085,0.0212 -0.01705,0.0305 -0.0062,0.009 -0.01305,0.018 -0.02015,0.0258 -0.0071,0.008 -0.01447,0.0147 -0.02222,0.0212 -0.0078,0.007 -0.01563,0.0123 -0.02377,0.0176 -0.0081,0.005 -0.01654,0.01 -0.0248,0.0139 -0.01654,0.008 -0.03307,0.0145 -0.04858,0.0191 -0.0155,0.005 -0.02997,0.008 -0.04238,0.01 -0.02481,0.004 -0.04134,0.004 -0.04134,0.004 0,0 -0.01654,0 -0.04134,-0.004 -0.0124,-0.002 -0.02687,-0.005 -0.04237,-0.01 -0.0155,-0.005 -0.03204,-0.0108 -0.04858,-0.0191 -0.0083,-0.004 -0.01667,-0.009 -0.0248,-0.0139 -0.0081,-0.005 -0.01602,-0.0111 -0.02377,-0.0176 -0.0078,-0.006 -0.01511,-0.0134 -0.02222,-0.0212 -0.0071,-0.008 -0.01395,-0.0165 -0.02015,-0.0258 -0.0062,-0.009 -0.01201,-0.0196 -0.01705,-0.0305 -0.005,-0.0109 -0.0093,-0.0225 -0.01292,-0.0351 -0.0036,-0.0127 -0.0063,-0.0263 -0.0083,-0.0408 -0.0019,-0.0145 -0.0031,-0.03 -0.0031,-0.0465 -9e-6,-3.52777 -9e-6,-7.05556 0,-10.58333 0,-0.0165 0.0012,-0.032 0.0031,-0.0465 0.0019,-0.0145 0.0047,-0.0282 0.0083,-0.0408 0.0036,-0.0127 0.0079,-0.0242 0.01292,-0.0351 0.005,-0.0109 0.01085,-0.0212 0.01705,-0.0305 0.0062,-0.009 0.01305,-0.018 0.02015,-0.0258 0.0071,-0.008 0.01447,-0.0147 0.02222,-0.0212 0.0078,-0.007 0.01563,-0.0123 0.02377,-0.0176 0.0081,-0.005 0.01654,-0.01 0.0248,-0.0139 0.01654,-0.008 0.03307,-0.0145 0.04858,-0.0191 0.0155,-0.005 0.02997,-0.008 0.04237,-0.01 0.0248,-0.004 0.04134,-0.004 0.04134,-0.004 z" /><path
         id="path347"
         style="fill:#bfff3c;fill-opacity:1;stroke-width:0.264583"
         d="m 62.177083,80.16875 v 18.520833 h 7.408334 c 0.529165,0 0.529166,-0.529166 0.529166,-0.529166 v -8.202084 c 0,-0.24945 -0.529166,-0.529166 -0.529166,-0.529166 0,0 0.529167,-0.264583 0.529166,-0.529167 v -8.202083 c 0,-0.529167 -0.529166,-0.529167 -0.529166,-0.529167 z m 3.704167,3.704167 h 0.264583 c 0.264584,0 0.264584,0.264583 0.264584,0.264583 v 3.175 c 0,0.264583 -0.264584,0.264583 -0.264584,0.264583 H 65.88125 Z m 0,7.408333 h 0.264583 c 0.264584,0 0.264584,0.264583 0.264584,0.264583 v 3.175 c 0,0.264583 -0.264584,0.264584 -0.264584,0.264584 H 65.88125 Z" /><path
         style="fill:#bfff3c;fill-opacity:1;stroke-width:0.264583"
         d="m 79.110416,80.168749 h 3.704166 c 0,0 -2.4e-5,9.701389 0,14.552083 10e-7,0.264585 0.264584,0.264583 0.264584,0.264583 0,0 0.264584,2e-6 0.264583,-0.264583 -1.8e-5,-4.850694 10e-7,-14.552082 0,-14.552083 h 3.704167 v 17.991666 c 0,0 0,0.529167 -0.529167,0.529167 h -6.879167 c 0,0 -0.529166,0 -0.529166,-0.529167 z"
         id="path3606"
         sodipodi:nodetypes="ccscscccscsc" /><path
         style="fill:#bfff3c;fill-opacity:1;stroke-width:0.264583"
         d="m 87.577084,98.689583 h 3.704166 c 0,0 -2.4e-5,-9.965972 0,-14.816666 h 0.264584 c 0,0 0.264584,-2e-6 0.264583,0.264583 -1.8e-5,4.850694 10e-7,14.552083 0,14.552083 h 3.704167 V 80.697914 c 0,0 0,-0.52916 -0.529167,-0.52916 l -7.408334,-4e-6 c 0,0 10e-7,14.160396 10e-7,18.520833 z"
         id="path3606-4"
         sodipodi:nodetypes="ccccscccscc" /><path
         style="fill:#ff2674;fill-opacity:1;stroke-width:0.264583"
         d="m 96.04375,120.91458 h 3.704166 c 0,0 -2.4e-5,-9.96597 0,-14.81666 h 0.264584 c 0,0 0.26458,0 0.26458,0.26458 -2e-5,4.85069 0,14.55208 0,14.55208 h 3.70417 v -17.99167 c 0,0 0,-0.52916 -0.52917,-0.52916 h -7.408331 c 0,0 10e-7,14.16039 10e-7,18.52083 z"
         id="path3606-4-4"
         sodipodi:nodetypes="ccccscccscc" /><path
         style="fill:#ff2674;fill-opacity:1;stroke-width:0.264583"
         d="m 89.164582,128.32292 v -7.40834 h 5.820833 c 0,0 0.529167,0 0.529167,-0.52916 0,-0.52917 0,-17.99167 0,-17.99167 h -3.704166 v 14.81667 H 89.164582 V 99.218749 h -3.704166 v 17.991671 h -2.645834 v -14.81667 h -3.704166 v 17.99167 c 0,0 0,0.52916 0.529166,0.52916 0.529167,0 5.820834,0 5.820834,0 v 7.40834 z"
         id="path3903" /></g></g></svg>
